<mxfile host="app.diagrams.net" modified="2022-04-06T13:45:16.269Z" agent="5.0 (Macintosh; Intel Mac OS X 10_15_7) AppleWebKit/537.36 (KHTML, like Gecko) Chrome/99.0.4844.84 Safari/537.36" etag="FlyBeL1gyOs-JhEq7OBR" version="17.4.0" type="github">
  <diagram id="kgpKYQtTHZ0yAKxKKP6v" name="Page-1">
    <mxGraphModel dx="1783" dy="961" grid="1" gridSize="10" guides="1" tooltips="1" connect="1" arrows="1" fold="1" page="1" pageScale="1" pageWidth="850" pageHeight="1100" math="0" shadow="0">
      <root>
        <mxCell id="0" />
        <mxCell id="1" parent="0" />
        <mxCell id="jRzs0VlaQzZq-VrO8uEP-1" value="alt" style="shape=umlFrame;whiteSpace=wrap;html=1;" vertex="1" parent="1">
          <mxGeometry x="800" y="1930" width="660" height="250" as="geometry" />
        </mxCell>
        <mxCell id="jRzs0VlaQzZq-VrO8uEP-2" value="pay-courier" style="shape=umlLifeline;perimeter=lifelinePerimeter;whiteSpace=wrap;html=1;container=0;collapsible=0;recursiveResize=0;outlineConnect=0;rounded=1;shadow=0;comic=0;labelBackgroundColor=none;strokeWidth=1;fontFamily=Verdana;fontSize=12;align=center;" vertex="1" parent="1">
          <mxGeometry x="820" y="80" width="100" height="2120" as="geometry" />
        </mxCell>
        <mxCell id="jRzs0VlaQzZq-VrO8uEP-3" value="alt" style="shape=umlFrame;whiteSpace=wrap;html=1;" vertex="1" parent="1">
          <mxGeometry x="1500" y="1520" width="650" height="180" as="geometry" />
        </mxCell>
        <mxCell id="jRzs0VlaQzZq-VrO8uEP-4" value="alt" style="shape=umlFrame;whiteSpace=wrap;html=1;" vertex="1" parent="1">
          <mxGeometry x="800" y="1030" width="660" height="770" as="geometry" />
        </mxCell>
        <mxCell id="jRzs0VlaQzZq-VrO8uEP-5" value="" style="html=1;points=[];perimeter=orthogonalPerimeter;rounded=0;shadow=0;comic=0;labelBackgroundColor=none;strokeWidth=1;fontFamily=Verdana;fontSize=12;align=center;" vertex="1" parent="1">
          <mxGeometry x="865" y="600" width="10" height="1240" as="geometry" />
        </mxCell>
        <mxCell id="jRzs0VlaQzZq-VrO8uEP-6" value="pay-ucert" style="shape=umlLifeline;perimeter=lifelinePerimeter;whiteSpace=wrap;html=1;container=1;collapsible=0;recursiveResize=0;outlineConnect=0;rounded=1;shadow=0;comic=0;labelBackgroundColor=none;strokeWidth=1;fontFamily=Verdana;fontSize=12;align=center;" vertex="1" parent="1">
          <mxGeometry x="240" y="80" width="100" height="2120" as="geometry" />
        </mxCell>
        <mxCell id="jRzs0VlaQzZq-VrO8uEP-7" value="" style="html=1;points=[];perimeter=orthogonalPerimeter;rounded=0;shadow=0;comic=0;labelBackgroundColor=none;strokeWidth=1;fontFamily=Verdana;fontSize=12;align=center;" vertex="1" parent="jRzs0VlaQzZq-VrO8uEP-6">
          <mxGeometry x="45" y="100" width="10" height="30" as="geometry" />
        </mxCell>
        <mxCell id="jRzs0VlaQzZq-VrO8uEP-8" value="pay-customer-center" style="shape=umlLifeline;perimeter=lifelinePerimeter;whiteSpace=wrap;html=1;container=1;collapsible=0;recursiveResize=0;outlineConnect=0;rounded=1;shadow=0;comic=0;labelBackgroundColor=none;strokeWidth=1;fontFamily=Verdana;fontSize=12;align=center;" vertex="1" parent="1">
          <mxGeometry x="400" y="80" width="100" height="2120" as="geometry" />
        </mxCell>
        <mxCell id="jRzs0VlaQzZq-VrO8uEP-9" value="" style="html=1;points=[];perimeter=orthogonalPerimeter;rounded=0;shadow=0;comic=0;labelBackgroundColor=none;strokeWidth=1;fontFamily=Verdana;fontSize=12;align=center;" vertex="1" parent="jRzs0VlaQzZq-VrO8uEP-8">
          <mxGeometry x="45" y="140" width="10" height="50" as="geometry" />
        </mxCell>
        <mxCell id="jRzs0VlaQzZq-VrO8uEP-10" value="shopcenter-outer" style="shape=umlLifeline;perimeter=lifelinePerimeter;whiteSpace=wrap;html=1;container=1;collapsible=0;recursiveResize=0;outlineConnect=0;rounded=1;shadow=0;comic=0;labelBackgroundColor=none;strokeWidth=1;fontFamily=Verdana;fontSize=12;align=center;" vertex="1" parent="1">
          <mxGeometry x="540" y="80" width="100" height="2120" as="geometry" />
        </mxCell>
        <mxCell id="jRzs0VlaQzZq-VrO8uEP-11" value="pay-customer" style="shape=umlLifeline;perimeter=lifelinePerimeter;whiteSpace=wrap;html=1;container=1;collapsible=0;recursiveResize=0;outlineConnect=0;rounded=1;shadow=0;comic=0;labelBackgroundColor=none;strokeWidth=1;fontFamily=Verdana;fontSize=12;align=center;" vertex="1" parent="1">
          <mxGeometry x="680" y="80" width="100" height="2120" as="geometry" />
        </mxCell>
        <mxCell id="jRzs0VlaQzZq-VrO8uEP-12" value="fin-decision" style="shape=umlLifeline;perimeter=lifelinePerimeter;whiteSpace=wrap;html=1;container=1;collapsible=0;recursiveResize=0;outlineConnect=0;rounded=1;shadow=0;comic=0;labelBackgroundColor=none;strokeWidth=1;fontFamily=Verdana;fontSize=12;align=center;" vertex="1" parent="1">
          <mxGeometry x="960" y="80" width="100" height="2120" as="geometry" />
        </mxCell>
        <mxCell id="jRzs0VlaQzZq-VrO8uEP-13" value="wsc-pc-assets" style="shape=umlLifeline;perimeter=lifelinePerimeter;whiteSpace=wrap;html=1;container=1;collapsible=0;recursiveResize=0;outlineConnect=0;rounded=1;shadow=0;comic=0;labelBackgroundColor=none;strokeWidth=1;fontFamily=Verdana;fontSize=12;align=center;" vertex="1" parent="1">
          <mxGeometry x="100" y="80" width="100" height="2120" as="geometry" />
        </mxCell>
        <mxCell id="jRzs0VlaQzZq-VrO8uEP-14" value="" style="html=1;points=[];perimeter=orthogonalPerimeter;rounded=0;shadow=0;comic=0;labelBackgroundColor=none;strokeWidth=1;fontFamily=Verdana;fontSize=12;align=center;" vertex="1" parent="jRzs0VlaQzZq-VrO8uEP-13">
          <mxGeometry x="45" y="100" width="10" height="440" as="geometry" />
        </mxCell>
        <mxCell id="jRzs0VlaQzZq-VrO8uEP-15" value="查询认证状态" style="html=1;verticalAlign=bottom;endArrow=block;entryX=0;entryY=0;labelBackgroundColor=none;fontFamily=Verdana;fontSize=12;edgeStyle=elbowEdgeStyle;elbow=vertical;" edge="1" parent="1" source="jRzs0VlaQzZq-VrO8uEP-14" target="jRzs0VlaQzZq-VrO8uEP-7">
          <mxGeometry relative="1" as="geometry">
            <mxPoint x="220" y="190" as="sourcePoint" />
          </mxGeometry>
        </mxCell>
        <mxCell id="jRzs0VlaQzZq-VrO8uEP-16" value="Note" style="shape=note;whiteSpace=wrap;html=1;size=14;verticalAlign=top;align=left;spacingTop=-6;rounded=0;shadow=0;comic=0;labelBackgroundColor=none;strokeWidth=1;fontFamily=Verdana;fontSize=12" vertex="1" parent="1">
          <mxGeometry x="100" y="30" width="100" height="35" as="geometry" />
        </mxCell>
        <mxCell id="jRzs0VlaQzZq-VrO8uEP-17" value="Note" style="shape=note;whiteSpace=wrap;html=1;size=14;verticalAlign=top;align=left;spacingTop=-6;rounded=0;shadow=0;comic=0;labelBackgroundColor=none;strokeWidth=1;fontFamily=Verdana;fontSize=12" vertex="1" parent="1">
          <mxGeometry x="240" y="30" width="100" height="35" as="geometry" />
        </mxCell>
        <mxCell id="jRzs0VlaQzZq-VrO8uEP-18" value="Note" style="shape=note;whiteSpace=wrap;html=1;size=14;verticalAlign=top;align=left;spacingTop=-6;rounded=0;shadow=0;comic=0;labelBackgroundColor=none;strokeWidth=1;fontFamily=Verdana;fontSize=12" vertex="1" parent="1">
          <mxGeometry x="400" y="30" width="100" height="35" as="geometry" />
        </mxCell>
        <mxCell id="jRzs0VlaQzZq-VrO8uEP-19" value="Note" style="shape=note;whiteSpace=wrap;html=1;size=14;verticalAlign=top;align=left;spacingTop=-6;rounded=0;shadow=0;comic=0;labelBackgroundColor=none;strokeWidth=1;fontFamily=Verdana;fontSize=12" vertex="1" parent="1">
          <mxGeometry x="540" y="30" width="100" height="35" as="geometry" />
        </mxCell>
        <mxCell id="jRzs0VlaQzZq-VrO8uEP-20" value="Note" style="shape=note;whiteSpace=wrap;html=1;size=14;verticalAlign=top;align=left;spacingTop=-6;rounded=0;shadow=0;comic=0;labelBackgroundColor=none;strokeWidth=1;fontFamily=Verdana;fontSize=12" vertex="1" parent="1">
          <mxGeometry x="680" y="30" width="100" height="35" as="geometry" />
        </mxCell>
        <mxCell id="jRzs0VlaQzZq-VrO8uEP-21" value="Note" style="shape=note;whiteSpace=wrap;html=1;size=14;verticalAlign=top;align=left;spacingTop=-6;rounded=0;shadow=0;comic=0;labelBackgroundColor=none;strokeWidth=1;fontFamily=Verdana;fontSize=12" vertex="1" parent="1">
          <mxGeometry x="820" y="30" width="100" height="35" as="geometry" />
        </mxCell>
        <mxCell id="jRzs0VlaQzZq-VrO8uEP-22" value="Note" style="shape=note;whiteSpace=wrap;html=1;size=14;verticalAlign=top;align=left;spacingTop=-6;rounded=0;shadow=0;comic=0;labelBackgroundColor=none;strokeWidth=1;fontFamily=Verdana;fontSize=12" vertex="1" parent="1">
          <mxGeometry x="960" y="30" width="100" height="35" as="geometry" />
        </mxCell>
        <mxCell id="jRzs0VlaQzZq-VrO8uEP-23" value="return" style="html=1;verticalAlign=bottom;endArrow=open;dashed=1;endSize=8;labelBackgroundColor=none;fontFamily=Verdana;fontSize=12;edgeStyle=elbowEdgeStyle;elbow=vertical;" edge="1" parent="1">
          <mxGeometry relative="1" as="geometry">
            <mxPoint x="153" y="206" as="targetPoint" />
            <Array as="points">
              <mxPoint x="228" y="206" />
              <mxPoint x="258" y="206" />
            </Array>
            <mxPoint x="283" y="206" as="sourcePoint" />
          </mxGeometry>
        </mxCell>
        <mxCell id="jRzs0VlaQzZq-VrO8uEP-24" value="查询签约状态" style="html=1;verticalAlign=bottom;endArrow=block;labelBackgroundColor=none;fontFamily=Verdana;fontSize=12;edgeStyle=elbowEdgeStyle;elbow=vertical;" edge="1" parent="1" target="jRzs0VlaQzZq-VrO8uEP-8">
          <mxGeometry relative="1" as="geometry">
            <mxPoint x="155" y="230" as="sourcePoint" />
            <mxPoint x="285" y="230" as="targetPoint" />
          </mxGeometry>
        </mxCell>
        <mxCell id="jRzs0VlaQzZq-VrO8uEP-25" value="return" style="html=1;verticalAlign=bottom;endArrow=open;dashed=1;endSize=8;labelBackgroundColor=none;fontFamily=Verdana;fontSize=12;edgeStyle=elbowEdgeStyle;elbow=vertical;" edge="1" parent="1">
          <mxGeometry relative="1" as="geometry">
            <mxPoint x="153" y="257" as="targetPoint" />
            <Array as="points">
              <mxPoint x="388" y="256.5" />
              <mxPoint x="418" y="256.5" />
            </Array>
            <mxPoint x="443" y="256.5" as="sourcePoint" />
          </mxGeometry>
        </mxCell>
        <mxCell id="jRzs0VlaQzZq-VrO8uEP-26" value="" style="html=1;points=[];perimeter=orthogonalPerimeter;rounded=0;shadow=0;comic=0;labelBackgroundColor=none;strokeWidth=1;fontFamily=Verdana;fontSize=12;align=center;" vertex="1" parent="1">
          <mxGeometry x="585" y="280" width="10" height="40" as="geometry" />
        </mxCell>
        <mxCell id="jRzs0VlaQzZq-VrO8uEP-27" value="查询风控状态" style="html=1;verticalAlign=bottom;endArrow=block;labelBackgroundColor=none;fontFamily=Verdana;fontSize=12;edgeStyle=elbowEdgeStyle;elbow=horizontal;entryX=0;entryY=0;entryDx=0;entryDy=0;entryPerimeter=0;" edge="1" parent="1" target="jRzs0VlaQzZq-VrO8uEP-26">
          <mxGeometry relative="1" as="geometry">
            <mxPoint x="156" y="280" as="sourcePoint" />
            <mxPoint x="450.5" y="280" as="targetPoint" />
          </mxGeometry>
        </mxCell>
        <mxCell id="jRzs0VlaQzZq-VrO8uEP-28" value="return" style="html=1;verticalAlign=bottom;endArrow=open;dashed=1;endSize=8;labelBackgroundColor=none;fontFamily=Verdana;fontSize=12;edgeStyle=elbowEdgeStyle;elbow=vertical;entryX=1.5;entryY=0.295;entryDx=0;entryDy=0;entryPerimeter=0;" edge="1" parent="1">
          <mxGeometry relative="1" as="geometry">
            <mxPoint x="157" y="309.79999999999995" as="targetPoint" />
            <Array as="points">
              <mxPoint x="522" y="310" />
              <mxPoint x="552" y="310" />
            </Array>
            <mxPoint x="580" y="310" as="sourcePoint" />
          </mxGeometry>
        </mxCell>
        <mxCell id="jRzs0VlaQzZq-VrO8uEP-29" value="" style="html=1;points=[];perimeter=orthogonalPerimeter;rounded=0;shadow=0;comic=0;labelBackgroundColor=none;strokeWidth=1;fontFamily=Verdana;fontSize=12;align=center;" vertex="1" parent="1">
          <mxGeometry x="725" y="340" width="10" height="40" as="geometry" />
        </mxCell>
        <mxCell id="jRzs0VlaQzZq-VrO8uEP-30" value="return" style="html=1;verticalAlign=bottom;endArrow=open;dashed=1;endSize=8;labelBackgroundColor=none;fontFamily=Verdana;fontSize=12;edgeStyle=elbowEdgeStyle;elbow=vertical;entryX=1.1;entryY=0.432;entryDx=0;entryDy=0;entryPerimeter=0;" edge="1" parent="1" target="jRzs0VlaQzZq-VrO8uEP-14">
          <mxGeometry relative="1" as="geometry">
            <mxPoint x="160" y="370" as="targetPoint" />
            <Array as="points">
              <mxPoint x="667" y="370" />
              <mxPoint x="697" y="370" />
            </Array>
            <mxPoint x="722" y="370" as="sourcePoint" />
          </mxGeometry>
        </mxCell>
        <mxCell id="jRzs0VlaQzZq-VrO8uEP-31" value="查询微信自有支付是否开启" style="html=1;verticalAlign=bottom;endArrow=block;labelBackgroundColor=none;fontFamily=Verdana;fontSize=12;edgeStyle=elbowEdgeStyle;elbow=vertical;entryX=0.1;entryY=0.025;entryDx=0;entryDy=0;entryPerimeter=0;exitX=0.9;exitY=0.366;exitDx=0;exitDy=0;exitPerimeter=0;" edge="1" parent="1" source="jRzs0VlaQzZq-VrO8uEP-14" target="jRzs0VlaQzZq-VrO8uEP-29">
          <mxGeometry relative="1" as="geometry">
            <mxPoint x="156" y="340" as="sourcePoint" />
            <mxPoint x="580" y="340" as="targetPoint" />
          </mxGeometry>
        </mxCell>
        <mxCell id="jRzs0VlaQzZq-VrO8uEP-32" value="" style="html=1;points=[];perimeter=orthogonalPerimeter;rounded=0;shadow=0;comic=0;labelBackgroundColor=none;strokeWidth=1;fontFamily=Verdana;fontSize=12;align=center;" vertex="1" parent="1">
          <mxGeometry x="865" y="400" width="10" height="40" as="geometry" />
        </mxCell>
        <mxCell id="jRzs0VlaQzZq-VrO8uEP-33" value="return" style="html=1;verticalAlign=bottom;endArrow=open;dashed=1;endSize=8;labelBackgroundColor=none;fontFamily=Verdana;fontSize=12;edgeStyle=elbowEdgeStyle;elbow=vertical;entryX=1.1;entryY=0.432;entryDx=0;entryDy=0;entryPerimeter=0;exitX=0;exitY=0.7;exitDx=0;exitDy=0;exitPerimeter=0;" edge="1" parent="1" source="jRzs0VlaQzZq-VrO8uEP-32">
          <mxGeometry relative="1" as="geometry">
            <mxPoint x="156" y="430.0799999999997" as="targetPoint" />
            <Array as="points">
              <mxPoint x="667" y="430" />
              <mxPoint x="697" y="430" />
            </Array>
            <mxPoint x="860" y="430" as="sourcePoint" />
          </mxGeometry>
        </mxCell>
        <mxCell id="jRzs0VlaQzZq-VrO8uEP-34" value="转账准入判断" style="html=1;verticalAlign=bottom;endArrow=block;labelBackgroundColor=none;fontFamily=Verdana;fontSize=12;edgeStyle=elbowEdgeStyle;elbow=vertical;entryX=0.1;entryY=0.025;entryDx=0;entryDy=0;entryPerimeter=0;exitX=0.9;exitY=0.366;exitDx=0;exitDy=0;exitPerimeter=0;" edge="1" parent="1" target="jRzs0VlaQzZq-VrO8uEP-32">
          <mxGeometry relative="1" as="geometry">
            <mxPoint x="154" y="401.03999999999996" as="sourcePoint" />
            <mxPoint x="580" y="400" as="targetPoint" />
          </mxGeometry>
        </mxCell>
        <mxCell id="jRzs0VlaQzZq-VrO8uEP-35" value="" style="html=1;points=[];perimeter=orthogonalPerimeter;rounded=0;shadow=0;comic=0;labelBackgroundColor=none;strokeWidth=1;fontFamily=Verdana;fontSize=12;align=center;" vertex="1" parent="1">
          <mxGeometry x="1004" y="400" width="10" height="40" as="geometry" />
        </mxCell>
        <mxCell id="jRzs0VlaQzZq-VrO8uEP-36" value="风控转账准入" style="html=1;verticalAlign=bottom;endArrow=block;entryX=0;entryY=0;labelBackgroundColor=none;fontFamily=Verdana;fontSize=12;edgeStyle=elbowEdgeStyle;elbow=vertical;" edge="1" parent="1">
          <mxGeometry relative="1" as="geometry">
            <mxPoint x="875" y="410" as="sourcePoint" />
            <mxPoint x="1005" y="410" as="targetPoint" />
          </mxGeometry>
        </mxCell>
        <mxCell id="jRzs0VlaQzZq-VrO8uEP-37" value="return" style="html=1;verticalAlign=bottom;endArrow=open;dashed=1;endSize=8;labelBackgroundColor=none;fontFamily=Verdana;fontSize=12;edgeStyle=elbowEdgeStyle;elbow=vertical;" edge="1" parent="1">
          <mxGeometry relative="1" as="geometry">
            <mxPoint x="874" y="439" as="targetPoint" />
            <Array as="points">
              <mxPoint x="949" y="439" />
              <mxPoint x="979" y="439" />
            </Array>
            <mxPoint x="1004" y="439" as="sourcePoint" />
          </mxGeometry>
        </mxCell>
        <mxCell id="jRzs0VlaQzZq-VrO8uEP-38" value="&lt;span style=&quot;font-family: , , &amp;#34;segoe ui&amp;#34; , &amp;#34;pingfang sc&amp;#34; , &amp;#34;hiragino sans gb&amp;#34; , &amp;#34;microsoft yahei&amp;#34; , &amp;#34;helvetica neue&amp;#34; , &amp;#34;helvetica&amp;#34; , &amp;#34;arial&amp;#34; , sans-serif , &amp;#34;apple color emoji&amp;#34; , &amp;#34;segoe ui emoji&amp;#34; , &amp;#34;segoe ui symbol&amp;#34; ; font-size: 13px ; background-color: rgb(255 , 255 , 255)&quot;&gt;yz-secured&lt;/span&gt;" style="shape=umlLifeline;perimeter=lifelinePerimeter;whiteSpace=wrap;html=1;container=1;collapsible=0;recursiveResize=0;outlineConnect=0;rounded=1;shadow=0;comic=0;labelBackgroundColor=none;strokeWidth=1;fontFamily=Verdana;fontSize=12;align=center;" vertex="1" parent="1">
          <mxGeometry x="1100" y="80" width="100" height="2120" as="geometry" />
        </mxCell>
        <mxCell id="jRzs0VlaQzZq-VrO8uEP-39" value="" style="html=1;points=[];perimeter=orthogonalPerimeter;rounded=0;shadow=0;comic=0;labelBackgroundColor=none;strokeColor=#000000;strokeWidth=1;fillColor=#FFFFFF;fontFamily=Verdana;fontSize=12;fontColor=#000000;align=center;" vertex="1" parent="1">
          <mxGeometry x="1145" y="680" width="10" height="30" as="geometry" />
        </mxCell>
        <mxCell id="jRzs0VlaQzZq-VrO8uEP-40" value="Note" style="shape=note;whiteSpace=wrap;html=1;size=14;verticalAlign=top;align=left;spacingTop=-6;rounded=0;shadow=0;comic=0;labelBackgroundColor=none;strokeWidth=1;fontFamily=Verdana;fontSize=12" vertex="1" parent="1">
          <mxGeometry x="1100" y="30" width="100" height="35" as="geometry" />
        </mxCell>
        <mxCell id="jRzs0VlaQzZq-VrO8uEP-41" value="" style="html=1;points=[];perimeter=orthogonalPerimeter;rounded=0;shadow=0;comic=0;labelBackgroundColor=none;strokeWidth=1;fontFamily=Verdana;fontSize=12;align=center;" vertex="1" parent="1">
          <mxGeometry x="285" y="460" width="10" height="40" as="geometry" />
        </mxCell>
        <mxCell id="jRzs0VlaQzZq-VrO8uEP-42" value="银行卡N要素校验" style="html=1;verticalAlign=bottom;endArrow=block;labelBackgroundColor=none;fontFamily=Verdana;fontSize=12;edgeStyle=elbowEdgeStyle;elbow=vertical;exitX=0.9;exitY=0.366;exitDx=0;exitDy=0;exitPerimeter=0;entryX=-0.1;entryY=0.05;entryDx=0;entryDy=0;entryPerimeter=0;" edge="1" parent="1" target="jRzs0VlaQzZq-VrO8uEP-41">
          <mxGeometry relative="1" as="geometry">
            <mxPoint x="154" y="461.03999999999974" as="sourcePoint" />
            <mxPoint x="866" y="461" as="targetPoint" />
          </mxGeometry>
        </mxCell>
        <mxCell id="jRzs0VlaQzZq-VrO8uEP-43" value="return" style="html=1;verticalAlign=bottom;endArrow=open;dashed=1;endSize=8;labelBackgroundColor=none;fontFamily=Verdana;fontSize=12;edgeStyle=elbowEdgeStyle;elbow=vertical;entryX=1.1;entryY=0.709;entryDx=0;entryDy=0;entryPerimeter=0;exitX=-0.1;exitY=0.8;exitDx=0;exitDy=0;exitPerimeter=0;" edge="1" parent="1" source="jRzs0VlaQzZq-VrO8uEP-41" target="jRzs0VlaQzZq-VrO8uEP-14">
          <mxGeometry relative="1" as="geometry">
            <mxPoint x="436" y="492.0799999999999" as="targetPoint" />
            <Array as="points">
              <mxPoint x="270" y="492" />
              <mxPoint x="977" y="492" />
            </Array>
            <mxPoint x="280" y="492" as="sourcePoint" />
          </mxGeometry>
        </mxCell>
        <mxCell id="jRzs0VlaQzZq-VrO8uEP-44" value="" style="html=1;points=[];perimeter=orthogonalPerimeter;rounded=0;shadow=0;comic=0;labelBackgroundColor=none;strokeWidth=1;fontFamily=Verdana;fontSize=12;align=center;" vertex="1" parent="1">
          <mxGeometry x="865" y="520" width="10" height="40" as="geometry" />
        </mxCell>
        <mxCell id="jRzs0VlaQzZq-VrO8uEP-45" value="代付（转账）单笔申请" style="html=1;verticalAlign=bottom;endArrow=block;labelBackgroundColor=none;fontFamily=Verdana;fontSize=12;edgeStyle=elbowEdgeStyle;elbow=vertical;entryX=0.1;entryY=0.025;entryDx=0;entryDy=0;entryPerimeter=0;exitX=0.9;exitY=0.366;exitDx=0;exitDy=0;exitPerimeter=0;" edge="1" parent="1">
          <mxGeometry relative="1" as="geometry">
            <mxPoint x="156" y="520.04" as="sourcePoint" />
            <mxPoint x="868" y="520.0000000000002" as="targetPoint" />
          </mxGeometry>
        </mxCell>
        <mxCell id="jRzs0VlaQzZq-VrO8uEP-46" value="return" style="html=1;verticalAlign=bottom;endArrow=open;dashed=1;endSize=8;labelBackgroundColor=none;fontFamily=Verdana;fontSize=12;edgeStyle=elbowEdgeStyle;elbow=vertical;entryX=1.1;entryY=0.432;entryDx=0;entryDy=0;entryPerimeter=0;exitX=0;exitY=0.7;exitDx=0;exitDy=0;exitPerimeter=0;" edge="1" parent="1">
          <mxGeometry relative="1" as="geometry">
            <mxPoint x="155" y="552.0799999999999" as="targetPoint" />
            <Array as="points">
              <mxPoint x="666" y="552" />
              <mxPoint x="696" y="552" />
            </Array>
            <mxPoint x="864" y="550.0000000000002" as="sourcePoint" />
          </mxGeometry>
        </mxCell>
        <mxCell id="jRzs0VlaQzZq-VrO8uEP-47" value="查询转账手续费" style="html=1;verticalAlign=bottom;endArrow=block;labelBackgroundColor=none;fontFamily=Verdana;fontSize=12;edgeStyle=elbowEdgeStyle;elbow=vertical;entryX=0.5;entryY=0.033;entryDx=0;entryDy=0;entryPerimeter=0;" edge="1" parent="1" target="jRzs0VlaQzZq-VrO8uEP-39">
          <mxGeometry relative="1" as="geometry">
            <mxPoint x="876" y="680.0000000000002" as="sourcePoint" />
            <mxPoint x="1143" y="681.02" as="targetPoint" />
          </mxGeometry>
        </mxCell>
        <mxCell id="jRzs0VlaQzZq-VrO8uEP-48" value="return" style="html=1;verticalAlign=bottom;endArrow=open;dashed=1;endSize=8;labelBackgroundColor=none;fontFamily=Verdana;fontSize=12;edgeStyle=elbowEdgeStyle;elbow=vertical;" edge="1" parent="1">
          <mxGeometry relative="1" as="geometry">
            <mxPoint x="874" y="700.0000000000002" as="targetPoint" />
            <Array as="points">
              <mxPoint x="1088" y="700" />
              <mxPoint x="1118" y="700" />
            </Array>
            <mxPoint x="1143" y="700.0000000000002" as="sourcePoint" />
          </mxGeometry>
        </mxCell>
        <mxCell id="jRzs0VlaQzZq-VrO8uEP-49" value="" style="html=1;points=[];perimeter=orthogonalPerimeter;rounded=0;shadow=0;comic=0;labelBackgroundColor=none;strokeColor=#000000;strokeWidth=1;fillColor=#FFFFFF;fontFamily=Verdana;fontSize=12;fontColor=#000000;align=center;" vertex="1" parent="1">
          <mxGeometry x="1705" y="730" width="10" height="30" as="geometry" />
        </mxCell>
        <mxCell id="jRzs0VlaQzZq-VrO8uEP-50" value="查询账户余额" style="html=1;verticalAlign=bottom;endArrow=block;labelBackgroundColor=none;fontFamily=Verdana;fontSize=12;edgeStyle=elbowEdgeStyle;elbow=vertical;entryX=0.5;entryY=0.033;entryDx=0;entryDy=0;entryPerimeter=0;" edge="1" parent="1" target="jRzs0VlaQzZq-VrO8uEP-49">
          <mxGeometry relative="1" as="geometry">
            <mxPoint x="876" y="730.0000000000002" as="sourcePoint" />
            <mxPoint x="1143" y="731.02" as="targetPoint" />
          </mxGeometry>
        </mxCell>
        <mxCell id="jRzs0VlaQzZq-VrO8uEP-51" value="return" style="html=1;verticalAlign=bottom;endArrow=open;dashed=1;endSize=8;labelBackgroundColor=none;fontFamily=Verdana;fontSize=12;edgeStyle=elbowEdgeStyle;elbow=vertical;" edge="1" parent="1">
          <mxGeometry relative="1" as="geometry">
            <mxPoint x="874" y="750.0000000000002" as="targetPoint" />
            <Array as="points">
              <mxPoint x="1088" y="750" />
              <mxPoint x="1118" y="750" />
            </Array>
            <mxPoint x="1700" y="750.0000000000002" as="sourcePoint" />
          </mxGeometry>
        </mxCell>
        <mxCell id="jRzs0VlaQzZq-VrO8uEP-52" value="&lt;span style=&quot;background-color: rgb(255 , 255 , 255)&quot;&gt;&lt;font style=&quot;font-size: 12px&quot;&gt;pay-quotas&lt;/font&gt;&lt;/span&gt;" style="shape=umlLifeline;perimeter=lifelinePerimeter;whiteSpace=wrap;html=1;container=1;collapsible=0;recursiveResize=0;outlineConnect=0;rounded=1;shadow=0;comic=0;labelBackgroundColor=none;strokeWidth=1;fontFamily=Verdana;fontSize=12;align=center;" vertex="1" parent="1">
          <mxGeometry x="1240" y="80" width="100" height="2120" as="geometry" />
        </mxCell>
        <mxCell id="jRzs0VlaQzZq-VrO8uEP-53" value="Note" style="shape=note;whiteSpace=wrap;html=1;size=14;verticalAlign=top;align=left;spacingTop=-6;rounded=0;shadow=0;comic=0;labelBackgroundColor=none;strokeWidth=1;fontFamily=Verdana;fontSize=12" vertex="1" parent="1">
          <mxGeometry x="1240" y="30" width="100" height="35" as="geometry" />
        </mxCell>
        <mxCell id="jRzs0VlaQzZq-VrO8uEP-54" value="" style="html=1;points=[];perimeter=orthogonalPerimeter;rounded=0;shadow=0;comic=0;labelBackgroundColor=none;strokeWidth=1;fontFamily=Verdana;fontSize=12;align=center;" vertex="1" parent="1">
          <mxGeometry x="869" y="789" width="10" height="40" as="geometry" />
        </mxCell>
        <mxCell id="jRzs0VlaQzZq-VrO8uEP-55" value="转账余额校验" style="html=1;verticalAlign=bottom;endArrow=block;labelBackgroundColor=none;fontFamily=Verdana;fontSize=12;elbow=vertical;edgeStyle=orthogonalEdgeStyle;curved=1;entryX=1;entryY=0.286;entryPerimeter=0;exitX=1.038;exitY=0.345;exitPerimeter=0;" edge="1" parent="1">
          <mxGeometry relative="1" as="geometry">
            <mxPoint x="874.3333333333335" y="770" as="sourcePoint" />
            <mxPoint x="879.3333333333335" y="808.3333333333335" as="targetPoint" />
            <Array as="points">
              <mxPoint x="929" y="770" />
              <mxPoint x="929" y="808" />
            </Array>
          </mxGeometry>
        </mxCell>
        <mxCell id="jRzs0VlaQzZq-VrO8uEP-56" value="&lt;span style=&quot;background-color: rgb(255 , 255 , 255)&quot;&gt;&lt;font style=&quot;font-size: 12px&quot;&gt;pay-trading-core&lt;/font&gt;&lt;/span&gt;" style="shape=umlLifeline;perimeter=lifelinePerimeter;whiteSpace=wrap;html=1;container=1;collapsible=0;recursiveResize=0;outlineConnect=0;rounded=1;shadow=0;comic=0;labelBackgroundColor=none;strokeWidth=1;fontFamily=Verdana;fontSize=12;align=center;" vertex="1" parent="1">
          <mxGeometry x="1380" y="80" width="100" height="2120" as="geometry" />
        </mxCell>
        <mxCell id="jRzs0VlaQzZq-VrO8uEP-57" value="" style="html=1;points=[];perimeter=orthogonalPerimeter;rounded=0;shadow=0;comic=0;labelBackgroundColor=none;strokeColor=#000000;strokeWidth=1;fillColor=#FFFFFF;fontFamily=Verdana;fontSize=12;fontColor=#000000;align=center;" vertex="1" parent="jRzs0VlaQzZq-VrO8uEP-56">
          <mxGeometry x="46" y="1050" width="10" height="30" as="geometry" />
        </mxCell>
        <mxCell id="jRzs0VlaQzZq-VrO8uEP-58" value="Note" style="shape=note;whiteSpace=wrap;html=1;size=14;verticalAlign=top;align=left;spacingTop=-6;rounded=0;shadow=0;comic=0;labelBackgroundColor=none;strokeWidth=1;fontFamily=Verdana;fontSize=12" vertex="1" parent="1">
          <mxGeometry x="1380" y="30" width="100" height="35" as="geometry" />
        </mxCell>
        <mxCell id="jRzs0VlaQzZq-VrO8uEP-59" value="" style="endArrow=none;html=1;edgeStyle=orthogonalEdgeStyle;dashed=1;" edge="1" parent="1">
          <mxGeometry relative="1" as="geometry">
            <mxPoint x="790" y="1180" as="sourcePoint" />
            <mxPoint x="1530" y="1180" as="targetPoint" />
          </mxGeometry>
        </mxCell>
        <mxCell id="jRzs0VlaQzZq-VrO8uEP-60" value="return" style="html=1;verticalAlign=bottom;endArrow=open;dashed=1;endSize=8;labelBackgroundColor=none;fontFamily=Verdana;fontSize=12;edgeStyle=elbowEdgeStyle;elbow=vertical;entryX=0.9;entryY=0.692;entryDx=0;entryDy=0;entryPerimeter=0;exitX=-0.1;exitY=0.633;exitDx=0;exitDy=0;exitPerimeter=0;" edge="1" parent="1" source="jRzs0VlaQzZq-VrO8uEP-57">
          <mxGeometry relative="1" as="geometry">
            <mxPoint x="875" y="1149.7600000000002" as="targetPoint" />
            <Array as="points">
              <mxPoint x="1222.5" y="1150" />
              <mxPoint x="1252.5" y="1150" />
            </Array>
            <mxPoint x="1420" y="1150" as="sourcePoint" />
          </mxGeometry>
        </mxCell>
        <mxCell id="jRzs0VlaQzZq-VrO8uEP-61" value="&lt;div&gt;&lt;span&gt;[prodType =&amp;nbsp;&lt;/span&gt;&lt;span style=&quot;font-size: 9pt ; background-color: rgb(255 , 255 , 255)&quot;&gt;TRANSFER_GENERAL&lt;/span&gt;&lt;/div&gt;&lt;div&gt;&lt;span&gt;&amp;nbsp; &amp;nbsp; &amp;nbsp; &amp;nbsp; &amp;nbsp; &amp;nbsp; &amp;nbsp; &amp;nbsp; ||&amp;nbsp; &lt;/span&gt;&lt;span style=&quot;background-color: rgb(255 , 255 , 255) ; font-size: 9pt&quot;&gt;TRANSFER_ENTERPRISE_V2&lt;/span&gt;&lt;/div&gt;&lt;div&gt;&lt;span style=&quot;background-color: rgb(255 , 255 , 255) ; font-size: 9pt&quot;&gt;&amp;nbsp; &amp;nbsp; &amp;nbsp; &amp;nbsp; &amp;nbsp; &amp;nbsp; &amp;nbsp; &amp;nbsp; ||&amp;nbsp; &amp;nbsp;&lt;/span&gt;&lt;span style=&quot;background-color: rgb(255 , 255 , 255) ; font-family: &amp;#34;menlo&amp;#34; ; font-size: 9pt&quot;&gt;SALES_SETTLEMENT]&lt;/span&gt;&lt;span style=&quot;background-color: rgb(255 , 255 , 255) ; font-size: 9pt&quot;&gt;&amp;nbsp; &amp;nbsp; &amp;nbsp;&lt;/span&gt;&lt;/div&gt;&lt;div&gt;&lt;span style=&quot;color: rgb(102 , 14 , 122) ; font-style: italic ; font-weight: bold ; background-color: rgb(255 , 255 , 255) ; font-size: 9pt&quot;&gt;&amp;nbsp;&lt;/span&gt;&lt;/div&gt;" style="text;html=1;strokeColor=none;fillColor=none;align=left;verticalAlign=middle;whiteSpace=wrap;rounded=0;" vertex="1" parent="1">
          <mxGeometry x="880" y="1070" width="250" height="60" as="geometry" />
        </mxCell>
        <mxCell id="jRzs0VlaQzZq-VrO8uEP-62" value="新支付交易核心同步转账申请" style="html=1;verticalAlign=bottom;endArrow=block;labelBackgroundColor=none;fontFamily=Verdana;fontSize=12;edgeStyle=elbowEdgeStyle;elbow=vertical;" edge="1" parent="1">
          <mxGeometry relative="1" as="geometry">
            <mxPoint x="875" y="1130" as="sourcePoint" />
            <mxPoint x="1430" y="1131" as="targetPoint" />
          </mxGeometry>
        </mxCell>
        <mxCell id="jRzs0VlaQzZq-VrO8uEP-63" value="&lt;div&gt;[prodType =&amp;nbsp;&lt;span style=&quot;font-style: italic ; background-color: rgb(255 , 255 , 255) ; font-size: 9pt&quot;&gt;TRANSFER_PRETTY&lt;/span&gt;&lt;/div&gt;&lt;div&gt;&lt;span&gt;&amp;nbsp; &amp;nbsp; &amp;nbsp; &amp;nbsp; &amp;nbsp; &amp;nbsp; &amp;nbsp; &amp;nbsp; ||&amp;nbsp;&amp;nbsp;&lt;/span&gt;&lt;span style=&quot;font-style: italic ; background-color: rgb(255 , 255 , 255) ; font-size: 9pt&quot;&gt;RISK_ARBITRATION&lt;/span&gt;&lt;/div&gt;&lt;div&gt;&lt;span style=&quot;background-color: rgb(255 , 255 , 255) ; font-size: 9pt&quot;&gt;&amp;nbsp; &amp;nbsp; &amp;nbsp; &amp;nbsp; &amp;nbsp; &amp;nbsp; &amp;nbsp; &amp;nbsp; ||&amp;nbsp; &lt;/span&gt;&lt;span style=&quot;font-style: italic ; background-color: rgb(255 , 255 , 255) ; font-size: 9pt&quot;&gt;RISK_COMPENSATION_RECOVERY&lt;/span&gt;&lt;span style=&quot;font-size: 9pt ; background-color: rgb(255 , 255 , 255) ; font-family: &amp;#34;menlo&amp;#34;&quot;&gt;]&lt;/span&gt;&lt;span style=&quot;font-size: 9pt ; background-color: rgb(255 , 255 , 255)&quot;&gt;&amp;nbsp; &amp;nbsp; &amp;nbsp;&lt;/span&gt;&lt;br&gt;&lt;/div&gt;&lt;div&gt;&lt;span style=&quot;font-style: italic ; background-color: rgb(255 , 255 , 255) ; font-size: 9pt&quot;&gt;&amp;nbsp;&lt;/span&gt;&lt;/div&gt;" style="text;html=1;strokeColor=none;fillColor=none;align=left;verticalAlign=middle;whiteSpace=wrap;rounded=0;" vertex="1" parent="1">
          <mxGeometry x="880" y="1210" width="290" height="30" as="geometry" />
        </mxCell>
        <mxCell id="jRzs0VlaQzZq-VrO8uEP-64" value="[bizType=BALANCE]" style="text;html=1;strokeColor=none;fillColor=none;align=center;verticalAlign=middle;whiteSpace=wrap;rounded=0;" vertex="1" parent="1">
          <mxGeometry x="920" y="1250" width="40" height="20" as="geometry" />
        </mxCell>
        <mxCell id="jRzs0VlaQzZq-VrO8uEP-65" value="" style="html=1;points=[];perimeter=orthogonalPerimeter;rounded=0;shadow=0;comic=0;labelBackgroundColor=none;strokeColor=#000000;strokeWidth=1;fillColor=#FFFFFF;fontFamily=Verdana;fontSize=12;fontColor=#000000;align=center;" vertex="1" parent="1">
          <mxGeometry x="1426" y="1280" width="10" height="30" as="geometry" />
        </mxCell>
        <mxCell id="jRzs0VlaQzZq-VrO8uEP-66" value="" style="endArrow=none;html=1;edgeStyle=orthogonalEdgeStyle;dashed=1;" edge="1" parent="1">
          <mxGeometry relative="1" as="geometry">
            <mxPoint x="760" y="1330" as="sourcePoint" />
            <mxPoint x="1520" y="1330" as="targetPoint" />
          </mxGeometry>
        </mxCell>
        <mxCell id="jRzs0VlaQzZq-VrO8uEP-67" value="return" style="html=1;verticalAlign=bottom;endArrow=open;dashed=1;endSize=8;labelBackgroundColor=none;fontFamily=Verdana;fontSize=12;edgeStyle=elbowEdgeStyle;elbow=vertical;entryX=0.9;entryY=0.692;entryDx=0;entryDy=0;entryPerimeter=0;exitX=0;exitY=0.6;exitDx=0;exitDy=0;exitPerimeter=0;" edge="1" parent="1" source="jRzs0VlaQzZq-VrO8uEP-65">
          <mxGeometry relative="1" as="geometry">
            <mxPoint x="875" y="1299.7600000000002" as="targetPoint" />
            <Array as="points">
              <mxPoint x="1222.5" y="1300" />
              <mxPoint x="1252.5" y="1300" />
            </Array>
            <mxPoint x="1420" y="1300" as="sourcePoint" />
          </mxGeometry>
        </mxCell>
        <mxCell id="jRzs0VlaQzZq-VrO8uEP-68" value="新支付交易核心同步转账申请" style="html=1;verticalAlign=bottom;endArrow=block;labelBackgroundColor=none;fontFamily=Verdana;fontSize=12;edgeStyle=elbowEdgeStyle;elbow=vertical;entryX=-0.1;entryY=0;entryDx=0;entryDy=0;entryPerimeter=0;" edge="1" parent="1" target="jRzs0VlaQzZq-VrO8uEP-65">
          <mxGeometry relative="1" as="geometry">
            <mxPoint x="875" y="1280" as="sourcePoint" />
            <mxPoint x="1420" y="1281" as="targetPoint" />
          </mxGeometry>
        </mxCell>
        <mxCell id="jRzs0VlaQzZq-VrO8uEP-69" value="" style="html=1;points=[];perimeter=orthogonalPerimeter;rounded=0;shadow=0;comic=0;labelBackgroundColor=none;strokeColor=#000000;strokeWidth=1;fillColor=#FFFFFF;fontFamily=Verdana;fontSize=12;fontColor=#000000;align=center;" vertex="1" parent="1">
          <mxGeometry x="1426" y="1640" width="10" height="30" as="geometry" />
        </mxCell>
        <mxCell id="jRzs0VlaQzZq-VrO8uEP-70" value="" style="endArrow=none;html=1;edgeStyle=orthogonalEdgeStyle;dashed=1;" edge="1" parent="1">
          <mxGeometry relative="1" as="geometry">
            <mxPoint x="790" y="1690" as="sourcePoint" />
            <mxPoint x="1480" y="1690" as="targetPoint" />
          </mxGeometry>
        </mxCell>
        <mxCell id="jRzs0VlaQzZq-VrO8uEP-71" value="return" style="html=1;verticalAlign=bottom;endArrow=open;dashed=1;endSize=8;labelBackgroundColor=none;fontFamily=Verdana;fontSize=12;edgeStyle=elbowEdgeStyle;elbow=vertical;entryX=0.9;entryY=0.692;entryDx=0;entryDy=0;entryPerimeter=0;exitX=-0.5;exitY=0.633;exitDx=0;exitDy=0;exitPerimeter=0;" edge="1" parent="1" source="jRzs0VlaQzZq-VrO8uEP-69">
          <mxGeometry relative="1" as="geometry">
            <mxPoint x="875" y="1659.7600000000002" as="targetPoint" />
            <Array as="points">
              <mxPoint x="1222.5" y="1660" />
              <mxPoint x="1252.5" y="1660" />
            </Array>
            <mxPoint x="1420" y="1660" as="sourcePoint" />
          </mxGeometry>
        </mxCell>
        <mxCell id="jRzs0VlaQzZq-VrO8uEP-72" value="&lt;div&gt;&lt;span&gt;[prodType =&amp;nbsp;&lt;/span&gt;&lt;span style=&quot;font-size: 9pt ; background-color: rgb(255 , 255 , 255)&quot;&gt;TRANSFER&lt;/span&gt;&lt;/div&gt;&lt;div&gt;&lt;span&gt;&amp;nbsp; &amp;nbsp; &amp;nbsp; &amp;nbsp; &amp;nbsp; &amp;nbsp; &amp;nbsp; &amp;nbsp; ||&amp;nbsp; &lt;/span&gt;&lt;span style=&quot;background-color: rgb(255 , 255 , 255) ; font-size: 9pt&quot;&gt;TRANSFER_ENTERPRISE&lt;/span&gt;&lt;span style=&quot;font-size: 9pt ; background-color: rgb(255 , 255 , 255) ; font-family: &amp;#34;menlo&amp;#34;&quot;&gt;]&lt;/span&gt;&lt;span style=&quot;font-size: 9pt ; background-color: rgb(255 , 255 , 255)&quot;&gt;&amp;nbsp; &amp;nbsp; &amp;nbsp;&lt;/span&gt;&lt;/div&gt;&lt;div&gt;&lt;span style=&quot;color: rgb(102 , 14 , 122) ; font-style: italic ; font-weight: bold ; background-color: rgb(255 , 255 , 255) ; font-size: 9pt&quot;&gt;&amp;nbsp;&lt;/span&gt;&lt;/div&gt;" style="text;html=1;strokeColor=none;fillColor=none;align=left;verticalAlign=middle;whiteSpace=wrap;rounded=0;" vertex="1" parent="1">
          <mxGeometry x="880" y="1580" width="250" height="32" as="geometry" />
        </mxCell>
        <mxCell id="jRzs0VlaQzZq-VrO8uEP-73" value="支付交易核心转账申请" style="html=1;verticalAlign=bottom;endArrow=block;labelBackgroundColor=none;fontFamily=Verdana;fontSize=12;edgeStyle=elbowEdgeStyle;elbow=vertical;" edge="1" parent="1">
          <mxGeometry relative="1" as="geometry">
            <mxPoint x="875" y="1640" as="sourcePoint" />
            <mxPoint x="1430" y="1641" as="targetPoint" />
          </mxGeometry>
        </mxCell>
        <mxCell id="jRzs0VlaQzZq-VrO8uEP-74" value="[else]" style="text;html=1;strokeColor=none;fillColor=none;align=center;verticalAlign=middle;whiteSpace=wrap;rounded=0;" vertex="1" parent="1">
          <mxGeometry x="875" y="1702" width="40" height="20" as="geometry" />
        </mxCell>
        <mxCell id="jRzs0VlaQzZq-VrO8uEP-75" value="throws Exception&amp;nbsp;" style="html=1;verticalAlign=bottom;endArrow=block;labelBackgroundColor=none;fontFamily=Verdana;fontSize=12;elbow=vertical;edgeStyle=orthogonalEdgeStyle;curved=1;entryX=1;entryY=0.286;entryPerimeter=0;exitX=1.038;exitY=0.345;exitPerimeter=0;" edge="1" parent="1">
          <mxGeometry relative="1" as="geometry">
            <mxPoint x="874.3333333333335" y="1732" as="sourcePoint" />
            <mxPoint x="879.3333333333335" y="1770.3333333333335" as="targetPoint" />
            <Array as="points">
              <mxPoint x="929" y="1732" />
              <mxPoint x="929" y="1770" />
            </Array>
          </mxGeometry>
        </mxCell>
        <mxCell id="jRzs0VlaQzZq-VrO8uEP-76" value="&lt;span style=&quot;background-color: rgb(255 , 255 , 255)&quot;&gt;&lt;font style=&quot;font-size: 12px&quot;&gt;pay-payment-core&lt;/font&gt;&lt;/span&gt;" style="shape=umlLifeline;perimeter=lifelinePerimeter;whiteSpace=wrap;html=1;container=0;collapsible=0;recursiveResize=0;outlineConnect=0;rounded=1;shadow=0;comic=0;labelBackgroundColor=none;strokeWidth=1;fontFamily=Verdana;fontSize=12;align=center;" vertex="1" parent="1">
          <mxGeometry x="1520" y="80" width="100" height="2120" as="geometry" />
        </mxCell>
        <mxCell id="jRzs0VlaQzZq-VrO8uEP-77" value="Note" style="shape=note;whiteSpace=wrap;html=1;size=14;verticalAlign=top;align=left;spacingTop=-6;rounded=0;shadow=0;comic=0;labelBackgroundColor=none;strokeWidth=1;fontFamily=Verdana;fontSize=12" vertex="1" parent="1">
          <mxGeometry x="1520" y="30" width="100" height="35" as="geometry" />
        </mxCell>
        <mxCell id="jRzs0VlaQzZq-VrO8uEP-78" value="支付核心同步转账" style="html=1;verticalAlign=bottom;endArrow=block;labelBackgroundColor=none;fontFamily=Verdana;fontSize=12;edgeStyle=elbowEdgeStyle;elbow=vertical;" edge="1" parent="1" target="jRzs0VlaQzZq-VrO8uEP-131">
          <mxGeometry relative="1" as="geometry">
            <mxPoint x="1435.9999999999995" y="1139.5" as="sourcePoint" />
            <mxPoint x="1566" y="1139.5" as="targetPoint" />
          </mxGeometry>
        </mxCell>
        <mxCell id="jRzs0VlaQzZq-VrO8uEP-79" value="return" style="html=1;verticalAlign=bottom;endArrow=open;dashed=1;endSize=8;labelBackgroundColor=none;fontFamily=Verdana;fontSize=12;edgeStyle=elbowEdgeStyle;elbow=vertical;" edge="1" parent="1">
          <mxGeometry relative="1" as="geometry">
            <mxPoint x="1434" y="1160" as="targetPoint" />
            <Array as="points">
              <mxPoint x="1509" y="1160" />
              <mxPoint x="1539" y="1160" />
            </Array>
            <mxPoint x="1564" y="1160" as="sourcePoint" />
          </mxGeometry>
        </mxCell>
        <mxCell id="jRzs0VlaQzZq-VrO8uEP-80" value="&lt;span style=&quot;background-color: rgb(255 , 255 , 255)&quot;&gt;pay-acctrans&lt;/span&gt;" style="shape=umlLifeline;perimeter=lifelinePerimeter;whiteSpace=wrap;html=1;container=1;collapsible=0;recursiveResize=0;outlineConnect=0;rounded=1;shadow=0;comic=0;labelBackgroundColor=none;strokeWidth=1;fontFamily=Verdana;fontSize=12;align=center;" vertex="1" parent="1">
          <mxGeometry x="1660" y="80" width="100" height="2120" as="geometry" />
        </mxCell>
        <mxCell id="jRzs0VlaQzZq-VrO8uEP-81" value="Note" style="shape=note;whiteSpace=wrap;html=1;size=14;verticalAlign=top;align=left;spacingTop=-6;rounded=0;shadow=0;comic=0;labelBackgroundColor=none;strokeWidth=1;fontFamily=Verdana;fontSize=12" vertex="1" parent="1">
          <mxGeometry x="1660" y="30" width="100" height="35" as="geometry" />
        </mxCell>
        <mxCell id="jRzs0VlaQzZq-VrO8uEP-82" value="" style="html=1;points=[];perimeter=orthogonalPerimeter;rounded=0;shadow=0;comic=0;labelBackgroundColor=none;strokeWidth=1;fontFamily=Verdana;fontSize=12;align=center;" vertex="1" parent="1">
          <mxGeometry x="870" y="629" width="10" height="40" as="geometry" />
        </mxCell>
        <mxCell id="jRzs0VlaQzZq-VrO8uEP-83" value="" style="html=1;verticalAlign=bottom;endArrow=block;labelBackgroundColor=none;fontFamily=Verdana;fontSize=12;elbow=vertical;edgeStyle=orthogonalEdgeStyle;curved=1;entryX=1;entryY=0.286;entryPerimeter=0;exitX=1.038;exitY=0.345;exitPerimeter=0;" edge="1" parent="1">
          <mxGeometry x="820" y="80" as="geometry">
            <mxPoint x="875.3333333333335" y="610.0000000000002" as="sourcePoint" />
            <mxPoint x="880.3333333333335" y="648.3333333333335" as="targetPoint" />
            <Array as="points">
              <mxPoint x="930" y="610" />
              <mxPoint x="930" y="648" />
            </Array>
          </mxGeometry>
        </mxCell>
        <mxCell id="jRzs0VlaQzZq-VrO8uEP-84" value="&lt;span style=&quot;font-family: &amp;#34;verdana&amp;#34; ; font-size: 12px ; background-color: rgb(248 , 249 , 250)&quot;&gt;请求参数校验&lt;/span&gt;" style="edgeLabel;html=1;align=center;verticalAlign=middle;resizable=0;points=[];" vertex="1" connectable="0" parent="jRzs0VlaQzZq-VrO8uEP-83">
          <mxGeometry relative="1" as="geometry">
            <mxPoint x="-4" y="-2" as="offset" />
          </mxGeometry>
        </mxCell>
        <mxCell id="jRzs0VlaQzZq-VrO8uEP-85" value="" style="html=1;verticalAlign=bottom;endArrow=block;labelBackgroundColor=none;fontFamily=Verdana;fontSize=12;elbow=vertical;edgeStyle=orthogonalEdgeStyle;curved=1;entryX=1;entryY=0.286;entryPerimeter=0;exitX=1.038;exitY=0.345;exitPerimeter=0;" edge="1" parent="1">
          <mxGeometry x="820" y="80" as="geometry">
            <mxPoint x="875.3333333333335" y="880" as="sourcePoint" />
            <mxPoint x="880.3333333333335" y="918.3333333333335" as="targetPoint" />
            <Array as="points">
              <mxPoint x="930" y="880" />
              <mxPoint x="930" y="918" />
            </Array>
          </mxGeometry>
        </mxCell>
        <mxCell id="jRzs0VlaQzZq-VrO8uEP-86" value="保存申请单" style="edgeLabel;html=1;align=center;verticalAlign=middle;resizable=0;points=[];" vertex="1" connectable="0" parent="jRzs0VlaQzZq-VrO8uEP-85">
          <mxGeometry relative="1" as="geometry">
            <mxPoint x="-1" y="3" as="offset" />
          </mxGeometry>
        </mxCell>
        <mxCell id="jRzs0VlaQzZq-VrO8uEP-87" value="" style="html=1;verticalAlign=bottom;endArrow=block;labelBackgroundColor=none;fontFamily=Verdana;fontSize=12;elbow=vertical;edgeStyle=orthogonalEdgeStyle;curved=1;entryX=1;entryY=0.286;entryPerimeter=0;exitX=1.038;exitY=0.345;exitPerimeter=0;" edge="1" parent="1">
          <mxGeometry x="820" y="80" as="geometry">
            <mxPoint x="875.3333333333335" y="950" as="sourcePoint" />
            <mxPoint x="880.3333333333335" y="988.3333333333335" as="targetPoint" />
            <Array as="points">
              <mxPoint x="930" y="950" />
              <mxPoint x="930" y="988" />
            </Array>
          </mxGeometry>
        </mxCell>
        <mxCell id="jRzs0VlaQzZq-VrO8uEP-88" value="&lt;span style=&quot;font-family: &amp;#34;verdana&amp;#34; ; font-size: 12px ; background-color: rgb(248 , 249 , 250)&quot;&gt;保存申请单扩展信息&lt;/span&gt;" style="edgeLabel;html=1;align=center;verticalAlign=middle;resizable=0;points=[];" vertex="1" connectable="0" parent="jRzs0VlaQzZq-VrO8uEP-87">
          <mxGeometry relative="1" as="geometry">
            <mxPoint x="-2" y="1" as="offset" />
          </mxGeometry>
        </mxCell>
        <mxCell id="jRzs0VlaQzZq-VrO8uEP-89" value="alt" style="shape=umlFrame;whiteSpace=wrap;html=1;" vertex="1" parent="1">
          <mxGeometry x="780" y="1240" width="710" height="290" as="geometry" />
        </mxCell>
        <mxCell id="jRzs0VlaQzZq-VrO8uEP-90" value="[else]" style="text;html=1;strokeColor=none;fillColor=none;align=center;verticalAlign=middle;whiteSpace=wrap;rounded=0;" vertex="1" parent="1">
          <mxGeometry x="880" y="1340" width="40" height="20" as="geometry" />
        </mxCell>
        <mxCell id="jRzs0VlaQzZq-VrO8uEP-91" value="" style="html=1;points=[];perimeter=orthogonalPerimeter;rounded=0;shadow=0;comic=0;labelBackgroundColor=none;strokeColor=#000000;strokeWidth=1;fillColor=#FFFFFF;fontFamily=Verdana;fontSize=12;fontColor=#000000;align=center;" vertex="1" parent="1">
          <mxGeometry x="1426" y="1370" width="10" height="30" as="geometry" />
        </mxCell>
        <mxCell id="jRzs0VlaQzZq-VrO8uEP-92" value="return" style="html=1;verticalAlign=bottom;endArrow=open;dashed=1;endSize=8;labelBackgroundColor=none;fontFamily=Verdana;fontSize=12;edgeStyle=elbowEdgeStyle;elbow=vertical;entryX=0.9;entryY=0.692;entryDx=0;entryDy=0;entryPerimeter=0;" edge="1" parent="1">
          <mxGeometry x="820" y="80" as="geometry">
            <mxPoint x="875" y="1389.7600000000002" as="targetPoint" />
            <Array as="points">
              <mxPoint x="1222.5" y="1390" />
              <mxPoint x="1252.5" y="1390" />
            </Array>
            <mxPoint x="1420" y="1390" as="sourcePoint" />
          </mxGeometry>
        </mxCell>
        <mxCell id="jRzs0VlaQzZq-VrO8uEP-93" value="新支付交易核心转账申请并打款" style="html=1;verticalAlign=bottom;endArrow=block;labelBackgroundColor=none;fontFamily=Verdana;fontSize=12;edgeStyle=elbowEdgeStyle;elbow=vertical;" edge="1" parent="1" target="jRzs0VlaQzZq-VrO8uEP-56">
          <mxGeometry x="820" y="80" as="geometry">
            <mxPoint x="875" y="1370" as="sourcePoint" />
            <mxPoint x="1570" y="1371" as="targetPoint" />
          </mxGeometry>
        </mxCell>
        <mxCell id="jRzs0VlaQzZq-VrO8uEP-94" value="" style="html=1;points=[];perimeter=orthogonalPerimeter;rounded=0;shadow=0;comic=0;labelBackgroundColor=none;strokeWidth=1;fontFamily=Verdana;fontSize=12;align=center;" vertex="1" parent="1">
          <mxGeometry x="870" y="899" width="10" height="40" as="geometry" />
        </mxCell>
        <mxCell id="jRzs0VlaQzZq-VrO8uEP-95" value="" style="html=1;points=[];perimeter=orthogonalPerimeter;rounded=0;shadow=0;comic=0;labelBackgroundColor=none;strokeWidth=1;fontFamily=Verdana;fontSize=12;align=center;" vertex="1" parent="1">
          <mxGeometry x="870" y="969" width="10" height="40" as="geometry" />
        </mxCell>
        <mxCell id="jRzs0VlaQzZq-VrO8uEP-96" value="" style="html=1;points=[];perimeter=orthogonalPerimeter;rounded=0;shadow=0;comic=0;labelBackgroundColor=none;strokeWidth=1;fontFamily=Verdana;fontSize=12;align=center;" vertex="1" parent="1">
          <mxGeometry x="869" y="1751" width="10" height="40" as="geometry" />
        </mxCell>
        <mxCell id="jRzs0VlaQzZq-VrO8uEP-97" value="" style="html=1;points=[];perimeter=orthogonalPerimeter;rounded=0;shadow=0;comic=0;labelBackgroundColor=none;strokeColor=#000000;strokeWidth=1;fillColor=#FFFFFF;fontFamily=Verdana;fontSize=12;fontColor=#000000;align=center;" vertex="1" parent="1">
          <mxGeometry x="1705" y="1150" width="10" height="30" as="geometry" />
        </mxCell>
        <mxCell id="jRzs0VlaQzZq-VrO8uEP-98" value="账务转账" style="html=1;verticalAlign=bottom;endArrow=block;labelBackgroundColor=none;fontFamily=Verdana;fontSize=12;edgeStyle=elbowEdgeStyle;elbow=vertical;" edge="1" parent="1">
          <mxGeometry relative="1" as="geometry">
            <mxPoint x="1575.9999999999995" y="1150" as="sourcePoint" />
            <mxPoint x="1705" y="1150.5" as="targetPoint" />
          </mxGeometry>
        </mxCell>
        <mxCell id="jRzs0VlaQzZq-VrO8uEP-99" value="return" style="html=1;verticalAlign=bottom;endArrow=open;dashed=1;endSize=8;labelBackgroundColor=none;fontFamily=Verdana;fontSize=12;edgeStyle=elbowEdgeStyle;elbow=vertical;" edge="1" parent="1">
          <mxGeometry relative="1" as="geometry">
            <mxPoint x="1575" y="1170" as="targetPoint" />
            <Array as="points">
              <mxPoint x="1650" y="1170" />
              <mxPoint x="1680" y="1170" />
            </Array>
            <mxPoint x="1705" y="1170" as="sourcePoint" />
          </mxGeometry>
        </mxCell>
        <mxCell id="jRzs0VlaQzZq-VrO8uEP-100" value="更新转账合约状态" style="html=1;verticalAlign=bottom;endArrow=block;labelBackgroundColor=none;fontFamily=Verdana;fontSize=12;elbow=vertical;edgeStyle=orthogonalEdgeStyle;curved=1;entryX=1;entryY=0.286;entryPerimeter=0;exitX=1.038;exitY=0.345;exitPerimeter=0;" edge="1" parent="1">
          <mxGeometry relative="1" as="geometry">
            <mxPoint x="1570.3333333333335" y="1187" as="sourcePoint" />
            <mxPoint x="1575.3333333333335" y="1225.3333333333335" as="targetPoint" />
            <Array as="points">
              <mxPoint x="1625" y="1187" />
              <mxPoint x="1625" y="1225" />
            </Array>
          </mxGeometry>
        </mxCell>
        <mxCell id="jRzs0VlaQzZq-VrO8uEP-101" value="" style="html=1;points=[];perimeter=orthogonalPerimeter;rounded=0;shadow=0;comic=0;labelBackgroundColor=none;strokeWidth=1;fontFamily=Verdana;fontSize=12;align=center;" vertex="1" parent="1">
          <mxGeometry x="1565" y="1206" width="10" height="40" as="geometry" />
        </mxCell>
        <mxCell id="jRzs0VlaQzZq-VrO8uEP-102" value="" style="html=1;points=[];perimeter=orthogonalPerimeter;rounded=0;shadow=0;comic=0;labelBackgroundColor=none;strokeColor=#000000;strokeWidth=1;fillColor=#FFFFFF;fontFamily=Verdana;fontSize=12;fontColor=#000000;align=center;" vertex="1" parent="1">
          <mxGeometry x="1565" y="1380.5" width="10" height="30" as="geometry" />
        </mxCell>
        <mxCell id="jRzs0VlaQzZq-VrO8uEP-103" value="支付核心同步转账" style="html=1;verticalAlign=bottom;endArrow=block;labelBackgroundColor=none;fontFamily=Verdana;fontSize=12;edgeStyle=elbowEdgeStyle;elbow=vertical;" edge="1" parent="1" target="jRzs0VlaQzZq-VrO8uEP-102">
          <mxGeometry relative="1" as="geometry">
            <mxPoint x="1435.9999999999995" y="1380" as="sourcePoint" />
            <mxPoint x="1566" y="1380" as="targetPoint" />
          </mxGeometry>
        </mxCell>
        <mxCell id="jRzs0VlaQzZq-VrO8uEP-104" value="return" style="html=1;verticalAlign=bottom;endArrow=open;dashed=1;endSize=8;labelBackgroundColor=none;fontFamily=Verdana;fontSize=12;edgeStyle=elbowEdgeStyle;elbow=vertical;" edge="1" parent="1">
          <mxGeometry relative="1" as="geometry">
            <mxPoint x="1434" y="1400.5" as="targetPoint" />
            <Array as="points">
              <mxPoint x="1509" y="1400.5" />
              <mxPoint x="1539" y="1400.5" />
            </Array>
            <mxPoint x="1564" y="1400.5" as="sourcePoint" />
          </mxGeometry>
        </mxCell>
        <mxCell id="jRzs0VlaQzZq-VrO8uEP-105" value="" style="html=1;points=[];perimeter=orthogonalPerimeter;rounded=0;shadow=0;comic=0;labelBackgroundColor=none;strokeColor=#000000;strokeWidth=1;fillColor=#FFFFFF;fontFamily=Verdana;fontSize=12;fontColor=#000000;align=center;" vertex="1" parent="1">
          <mxGeometry x="1705" y="1390.5" width="10" height="30" as="geometry" />
        </mxCell>
        <mxCell id="jRzs0VlaQzZq-VrO8uEP-106" value="账务转账" style="html=1;verticalAlign=bottom;endArrow=block;labelBackgroundColor=none;fontFamily=Verdana;fontSize=12;edgeStyle=elbowEdgeStyle;elbow=vertical;" edge="1" parent="1">
          <mxGeometry relative="1" as="geometry">
            <mxPoint x="1575.9999999999995" y="1390.5" as="sourcePoint" />
            <mxPoint x="1705" y="1391" as="targetPoint" />
          </mxGeometry>
        </mxCell>
        <mxCell id="jRzs0VlaQzZq-VrO8uEP-107" value="return" style="html=1;verticalAlign=bottom;endArrow=open;dashed=1;endSize=8;labelBackgroundColor=none;fontFamily=Verdana;fontSize=12;edgeStyle=elbowEdgeStyle;elbow=vertical;" edge="1" parent="1">
          <mxGeometry relative="1" as="geometry">
            <mxPoint x="1575" y="1410.5" as="targetPoint" />
            <Array as="points">
              <mxPoint x="1650" y="1410.5" />
              <mxPoint x="1680" y="1410.5" />
            </Array>
            <mxPoint x="1705" y="1410.5" as="sourcePoint" />
          </mxGeometry>
        </mxCell>
        <mxCell id="jRzs0VlaQzZq-VrO8uEP-108" value="ctu-security" style="shape=umlLifeline;perimeter=lifelinePerimeter;whiteSpace=wrap;html=1;container=1;collapsible=0;recursiveResize=0;outlineConnect=0;rounded=1;shadow=0;comic=0;labelBackgroundColor=none;strokeWidth=1;fontFamily=Verdana;fontSize=12;align=center;" vertex="1" parent="1">
          <mxGeometry x="1800" y="80" width="100" height="2120" as="geometry" />
        </mxCell>
        <mxCell id="jRzs0VlaQzZq-VrO8uEP-109" value="Note" style="shape=note;whiteSpace=wrap;html=1;size=14;verticalAlign=top;align=left;spacingTop=-6;rounded=0;shadow=0;comic=0;labelBackgroundColor=none;strokeWidth=1;fontFamily=Verdana;fontSize=12" vertex="1" parent="1">
          <mxGeometry x="1800" y="30" width="100" height="35" as="geometry" />
        </mxCell>
        <mxCell id="jRzs0VlaQzZq-VrO8uEP-110" value="" style="html=1;points=[];perimeter=orthogonalPerimeter;rounded=0;shadow=0;comic=0;labelBackgroundColor=none;strokeColor=#000000;strokeWidth=1;fillColor=#FFFFFF;fontFamily=Verdana;fontSize=12;fontColor=#000000;align=center;" vertex="1" parent="1">
          <mxGeometry x="1425" y="1430" width="10" height="30" as="geometry" />
        </mxCell>
        <mxCell id="jRzs0VlaQzZq-VrO8uEP-111" value="" style="html=1;points=[];perimeter=orthogonalPerimeter;rounded=0;shadow=0;comic=0;labelBackgroundColor=none;strokeColor=#000000;strokeWidth=1;fillColor=#FFFFFF;fontFamily=Verdana;fontSize=12;fontColor=#000000;align=center;" vertex="1" parent="1">
          <mxGeometry x="1845" y="1430" width="10" height="30" as="geometry" />
        </mxCell>
        <mxCell id="jRzs0VlaQzZq-VrO8uEP-112" value="转账风控：&lt;span style=&quot;font-style: italic ; background-color: rgb(255 , 255 , 255) ; font-family: &amp;#34;menlo&amp;#34; ; font-size: 9.8pt&quot;&gt;出金阶段转账到卡&lt;/span&gt;" style="html=1;verticalAlign=bottom;endArrow=block;labelBackgroundColor=none;fontFamily=Verdana;fontSize=12;edgeStyle=elbowEdgeStyle;elbow=vertical;" edge="1" parent="1" target="jRzs0VlaQzZq-VrO8uEP-108">
          <mxGeometry relative="1" as="geometry">
            <mxPoint x="1435.9999999999995" y="1430" as="sourcePoint" />
            <mxPoint x="1570" y="1430.5" as="targetPoint" />
          </mxGeometry>
        </mxCell>
        <mxCell id="jRzs0VlaQzZq-VrO8uEP-113" value="return" style="html=1;verticalAlign=bottom;endArrow=open;dashed=1;endSize=8;labelBackgroundColor=none;fontFamily=Verdana;fontSize=12;edgeStyle=elbowEdgeStyle;elbow=vertical;entryX=1;entryY=0.667;entryDx=0;entryDy=0;entryPerimeter=0;" edge="1" parent="1" target="jRzs0VlaQzZq-VrO8uEP-110">
          <mxGeometry relative="1" as="geometry">
            <mxPoint x="1440" y="1450" as="targetPoint" />
            <Array as="points">
              <mxPoint x="1785" y="1450" />
              <mxPoint x="1815" y="1450" />
            </Array>
            <mxPoint x="1840" y="1450" as="sourcePoint" />
          </mxGeometry>
        </mxCell>
        <mxCell id="jRzs0VlaQzZq-VrO8uEP-114" value="" style="html=1;points=[];perimeter=orthogonalPerimeter;rounded=0;shadow=0;comic=0;labelBackgroundColor=none;strokeColor=#000000;strokeWidth=1;fillColor=#FFFFFF;fontFamily=Verdana;fontSize=12;fontColor=#000000;align=center;" vertex="1" parent="1">
          <mxGeometry x="1426" y="1470" width="10" height="30" as="geometry" />
        </mxCell>
        <mxCell id="jRzs0VlaQzZq-VrO8uEP-115" value="" style="html=1;points=[];perimeter=orthogonalPerimeter;rounded=0;shadow=0;comic=0;labelBackgroundColor=none;strokeColor=#000000;strokeWidth=1;fillColor=#FFFFFF;fontFamily=Verdana;fontSize=12;fontColor=#000000;align=center;" vertex="1" parent="1">
          <mxGeometry x="1565" y="1480" width="10" height="30" as="geometry" />
        </mxCell>
        <mxCell id="jRzs0VlaQzZq-VrO8uEP-116" value="转账执行" style="html=1;verticalAlign=bottom;endArrow=block;labelBackgroundColor=none;fontFamily=Verdana;fontSize=12;edgeStyle=elbowEdgeStyle;elbow=vertical;" edge="1" parent="1" target="jRzs0VlaQzZq-VrO8uEP-115">
          <mxGeometry relative="1" as="geometry">
            <mxPoint x="1435.9999999999995" y="1479.5" as="sourcePoint" />
            <mxPoint x="1566" y="1479.5" as="targetPoint" />
          </mxGeometry>
        </mxCell>
        <mxCell id="jRzs0VlaQzZq-VrO8uEP-117" value="return" style="html=1;verticalAlign=bottom;endArrow=open;dashed=1;endSize=8;labelBackgroundColor=none;fontFamily=Verdana;fontSize=12;edgeStyle=elbowEdgeStyle;elbow=vertical;" edge="1" parent="1">
          <mxGeometry relative="1" as="geometry">
            <mxPoint x="1434" y="1500" as="targetPoint" />
            <Array as="points">
              <mxPoint x="1509" y="1500" />
              <mxPoint x="1539" y="1500" />
            </Array>
            <mxPoint x="1564" y="1500" as="sourcePoint" />
          </mxGeometry>
        </mxCell>
        <mxCell id="jRzs0VlaQzZq-VrO8uEP-118" value="&lt;span style=&quot;font-family: , , &amp;#34;segoe ui&amp;#34; , &amp;#34;pingfang sc&amp;#34; , &amp;#34;hiragino sans gb&amp;#34; , &amp;#34;microsoft yahei&amp;#34; , &amp;#34;helvetica neue&amp;#34; , &amp;#34;helvetica&amp;#34; , &amp;#34;arial&amp;#34; , sans-serif , &amp;#34;apple color emoji&amp;#34; , &amp;#34;segoe ui emoji&amp;#34; , &amp;#34;segoe ui symbol&amp;#34; ; font-size: 13px ; background-color: rgb(255 , 255 , 255)&quot;&gt;pay-withdraw-channel&lt;/span&gt;" style="shape=umlLifeline;perimeter=lifelinePerimeter;whiteSpace=wrap;html=1;container=1;collapsible=0;recursiveResize=0;outlineConnect=0;rounded=1;shadow=0;comic=0;labelBackgroundColor=none;strokeWidth=1;fontFamily=Verdana;fontSize=12;align=center;" vertex="1" parent="1">
          <mxGeometry x="1930" y="80" width="100" height="2120" as="geometry" />
        </mxCell>
        <mxCell id="jRzs0VlaQzZq-VrO8uEP-119" value="Note" style="shape=note;whiteSpace=wrap;html=1;size=14;verticalAlign=top;align=left;spacingTop=-6;rounded=0;shadow=0;comic=0;labelBackgroundColor=none;strokeWidth=1;fontFamily=Verdana;fontSize=12" vertex="1" parent="1">
          <mxGeometry x="1930" y="30" width="100" height="35" as="geometry" />
        </mxCell>
        <mxCell id="jRzs0VlaQzZq-VrO8uEP-120" value="单笔资金结算" style="html=1;verticalAlign=bottom;endArrow=block;labelBackgroundColor=none;fontFamily=Verdana;fontSize=12;edgeStyle=elbowEdgeStyle;elbow=vertical;entryX=0.1;entryY=0.033;entryDx=0;entryDy=0;entryPerimeter=0;" edge="1" parent="1" target="jRzs0VlaQzZq-VrO8uEP-121">
          <mxGeometry relative="1" as="geometry">
            <mxPoint x="1570" y="1581" as="sourcePoint" />
            <mxPoint x="1960" y="1581" as="targetPoint" />
          </mxGeometry>
        </mxCell>
        <mxCell id="jRzs0VlaQzZq-VrO8uEP-121" value="" style="html=1;points=[];perimeter=orthogonalPerimeter;rounded=0;shadow=0;comic=0;labelBackgroundColor=none;strokeColor=#000000;strokeWidth=1;fillColor=#FFFFFF;fontFamily=Verdana;fontSize=12;fontColor=#000000;align=center;" vertex="1" parent="1">
          <mxGeometry x="1975" y="1580" width="10" height="30" as="geometry" />
        </mxCell>
        <mxCell id="jRzs0VlaQzZq-VrO8uEP-122" value="&lt;font face=&quot;Verdana&quot; style=&quot;font-size: 10px&quot;&gt;[transferContractType =&amp;nbsp;&lt;span style=&quot;background-color: rgb(255 , 255 , 255)&quot;&gt;&lt;font&gt;BALANCE_TO_CARD&lt;br&gt;&amp;nbsp; &amp;nbsp; &amp;nbsp; &amp;nbsp; &amp;nbsp; &amp;nbsp; &amp;nbsp; &amp;nbsp; &amp;nbsp; &amp;nbsp; &amp;nbsp; &amp;nbsp; &amp;nbsp; &amp;nbsp; &amp;nbsp; &amp;nbsp; &amp;nbsp;||&amp;nbsp;&lt;/font&gt;&lt;/span&gt;&lt;span style=&quot;background-color: rgb(255 , 255 , 255)&quot;&gt;&lt;font&gt;WITHDRAW_BALANCE_TO_CARD]&lt;/font&gt;&lt;/span&gt;&lt;/font&gt;" style="text;html=1;align=left;verticalAlign=middle;resizable=0;points=[];autosize=1;strokeColor=none;" vertex="1" parent="1">
          <mxGeometry x="1575" y="1530" width="320" height="30" as="geometry" />
        </mxCell>
        <mxCell id="jRzs0VlaQzZq-VrO8uEP-123" value="return" style="html=1;verticalAlign=bottom;endArrow=open;dashed=1;endSize=8;labelBackgroundColor=none;fontFamily=Verdana;fontSize=12;edgeStyle=elbowEdgeStyle;elbow=vertical;entryX=1;entryY=0.667;entryDx=0;entryDy=0;entryPerimeter=0;" edge="1" parent="1">
          <mxGeometry relative="1" as="geometry">
            <mxPoint x="1570" y="1600.0100000000002" as="targetPoint" />
            <Array as="points">
              <mxPoint x="1920" y="1600" />
              <mxPoint x="1950" y="1600" />
            </Array>
            <mxPoint x="1975" y="1600" as="sourcePoint" />
          </mxGeometry>
        </mxCell>
        <mxCell id="jRzs0VlaQzZq-VrO8uEP-124" value="[else]" style="text;whiteSpace=wrap;html=1;" vertex="1" parent="1">
          <mxGeometry x="1577.5" y="1630" width="35" height="20" as="geometry" />
        </mxCell>
        <mxCell id="jRzs0VlaQzZq-VrO8uEP-125" value="&lt;span style=&quot;font-family: , , &amp;#34;segoe ui&amp;#34; , &amp;#34;pingfang sc&amp;#34; , &amp;#34;hiragino sans gb&amp;#34; , &amp;#34;microsoft yahei&amp;#34; , &amp;#34;helvetica neue&amp;#34; , &amp;#34;helvetica&amp;#34; , &amp;#34;arial&amp;#34; , sans-serif , &amp;#34;apple color emoji&amp;#34; , &amp;#34;segoe ui emoji&amp;#34; , &amp;#34;segoe ui symbol&amp;#34; ; font-size: 13px ; background-color: rgb(255 , 255 , 255)&quot;&gt;pay-fund-channel&lt;/span&gt;" style="shape=umlLifeline;perimeter=lifelinePerimeter;whiteSpace=wrap;html=1;container=1;collapsible=0;recursiveResize=0;outlineConnect=0;rounded=1;shadow=0;comic=0;labelBackgroundColor=none;strokeWidth=1;fontFamily=Verdana;fontSize=12;align=center;" vertex="1" parent="1">
          <mxGeometry x="2070" y="80" width="100" height="2120" as="geometry" />
        </mxCell>
        <mxCell id="jRzs0VlaQzZq-VrO8uEP-126" value="Note" style="shape=note;whiteSpace=wrap;html=1;size=14;verticalAlign=top;align=left;spacingTop=-6;rounded=0;shadow=0;comic=0;labelBackgroundColor=none;strokeWidth=1;fontFamily=Verdana;fontSize=12" vertex="1" parent="1">
          <mxGeometry x="2070" y="30" width="100" height="35" as="geometry" />
        </mxCell>
        <mxCell id="jRzs0VlaQzZq-VrO8uEP-127" value="微信、支付宝转账" style="html=1;verticalAlign=bottom;endArrow=block;labelBackgroundColor=none;fontFamily=Verdana;fontSize=12;edgeStyle=elbowEdgeStyle;elbow=vertical;entryX=0.1;entryY=0.033;entryDx=0;entryDy=0;entryPerimeter=0;" edge="1" parent="1" target="jRzs0VlaQzZq-VrO8uEP-128">
          <mxGeometry relative="1" as="geometry">
            <mxPoint x="1572.5" y="1661" as="sourcePoint" />
            <mxPoint x="1962.5" y="1661" as="targetPoint" />
          </mxGeometry>
        </mxCell>
        <mxCell id="jRzs0VlaQzZq-VrO8uEP-128" value="" style="html=1;points=[];perimeter=orthogonalPerimeter;rounded=0;shadow=0;comic=0;labelBackgroundColor=none;strokeColor=#000000;strokeWidth=1;fillColor=#FFFFFF;fontFamily=Verdana;fontSize=12;fontColor=#000000;align=center;" vertex="1" parent="1">
          <mxGeometry x="2117.5" y="1660" width="10" height="30" as="geometry" />
        </mxCell>
        <mxCell id="jRzs0VlaQzZq-VrO8uEP-129" value="return" style="html=1;verticalAlign=bottom;endArrow=open;dashed=1;endSize=8;labelBackgroundColor=none;fontFamily=Verdana;fontSize=12;edgeStyle=elbowEdgeStyle;elbow=vertical;entryX=1;entryY=0.667;entryDx=0;entryDy=0;entryPerimeter=0;" edge="1" parent="1">
          <mxGeometry relative="1" as="geometry">
            <mxPoint x="1572.5" y="1680.0100000000002" as="targetPoint" />
            <Array as="points">
              <mxPoint x="1922.5" y="1680" />
              <mxPoint x="1952.5" y="1680" />
            </Array>
            <mxPoint x="2112.5" y="1680" as="sourcePoint" />
          </mxGeometry>
        </mxCell>
        <mxCell id="jRzs0VlaQzZq-VrO8uEP-130" value="" style="endArrow=none;html=1;edgeStyle=orthogonalEdgeStyle;dashed=1;" edge="1" parent="1">
          <mxGeometry relative="1" as="geometry">
            <mxPoint x="1490" y="1620" as="sourcePoint" />
            <mxPoint x="2100" y="1620" as="targetPoint" />
          </mxGeometry>
        </mxCell>
        <mxCell id="jRzs0VlaQzZq-VrO8uEP-131" value="" style="html=1;points=[];perimeter=orthogonalPerimeter;rounded=0;shadow=0;comic=0;labelBackgroundColor=none;strokeColor=#000000;strokeWidth=1;fillColor=#FFFFFF;fontFamily=Verdana;fontSize=12;fontColor=#000000;align=center;" vertex="1" parent="1">
          <mxGeometry x="1565" y="1140" width="10" height="30" as="geometry" />
        </mxCell>
        <mxCell id="jRzs0VlaQzZq-VrO8uEP-132" value="发转账成功消息" style="html=1;verticalAlign=bottom;endArrow=block;labelBackgroundColor=none;fontFamily=Verdana;fontSize=12;elbow=vertical;edgeStyle=orthogonalEdgeStyle;curved=1;entryX=1;entryY=0.286;entryPerimeter=0;exitX=1.038;exitY=0.345;exitPerimeter=0;" edge="1" parent="1">
          <mxGeometry x="1520" y="80" as="geometry">
            <mxPoint x="1570.3333333333335" y="1260" as="sourcePoint" />
            <mxPoint x="1575.3333333333335" y="1298.3333333333335" as="targetPoint" />
            <Array as="points">
              <mxPoint x="1625" y="1260" />
              <mxPoint x="1625" y="1298" />
            </Array>
          </mxGeometry>
        </mxCell>
        <mxCell id="jRzs0VlaQzZq-VrO8uEP-133" value="" style="html=1;points=[];perimeter=orthogonalPerimeter;rounded=0;shadow=0;comic=0;labelBackgroundColor=none;strokeWidth=1;fontFamily=Verdana;fontSize=12;align=center;" vertex="1" parent="1">
          <mxGeometry x="1565" y="1279" width="10" height="40" as="geometry" />
        </mxCell>
        <mxCell id="jRzs0VlaQzZq-VrO8uEP-134" value="" style="endArrow=none;html=1;edgeStyle=orthogonalEdgeStyle;dashed=1;" edge="1" parent="1">
          <mxGeometry relative="1" as="geometry">
            <mxPoint x="789" y="1550" as="sourcePoint" />
            <mxPoint x="1479" y="1550" as="targetPoint" />
          </mxGeometry>
        </mxCell>
        <mxCell id="jRzs0VlaQzZq-VrO8uEP-135" value="" style="html=1;verticalAlign=bottom;endArrow=block;labelBackgroundColor=none;fontFamily=Verdana;fontSize=12;elbow=vertical;edgeStyle=orthogonalEdgeStyle;curved=1;entryX=1;entryY=0.286;entryPerimeter=0;exitX=1.038;exitY=0.345;exitPerimeter=0;" edge="1" parent="1">
          <mxGeometry x="1520" y="540" as="geometry">
            <mxPoint x="1570.3333333333335" y="1720" as="sourcePoint" />
            <mxPoint x="1575.3333333333335" y="1758.3333333333335" as="targetPoint" />
            <Array as="points">
              <mxPoint x="1625" y="1720" />
              <mxPoint x="1625" y="1758" />
            </Array>
          </mxGeometry>
        </mxCell>
        <mxCell id="jRzs0VlaQzZq-VrO8uEP-136" value="wx、alipay发&lt;br&gt;转账补偿消息" style="edgeLabel;html=1;align=center;verticalAlign=middle;resizable=0;points=[];" vertex="1" connectable="0" parent="jRzs0VlaQzZq-VrO8uEP-135">
          <mxGeometry relative="1" as="geometry">
            <mxPoint x="-5" y="4" as="offset" />
          </mxGeometry>
        </mxCell>
        <mxCell id="jRzs0VlaQzZq-VrO8uEP-137" value="" style="html=1;points=[];perimeter=orthogonalPerimeter;rounded=0;shadow=0;comic=0;labelBackgroundColor=none;strokeWidth=1;fontFamily=Verdana;fontSize=12;align=center;" vertex="1" parent="1">
          <mxGeometry x="1565" y="1739" width="10" height="40" as="geometry" />
        </mxCell>
        <mxCell id="jRzs0VlaQzZq-VrO8uEP-138" value="" style="html=1;points=[];perimeter=orthogonalPerimeter;rounded=0;shadow=0;comic=0;labelBackgroundColor=none;strokeWidth=1;fontFamily=Verdana;fontSize=12;align=center;" vertex="1" parent="1">
          <mxGeometry x="1426" y="1839" width="10" height="40" as="geometry" />
        </mxCell>
        <mxCell id="jRzs0VlaQzZq-VrO8uEP-139" value="发转账结果消息" style="html=1;verticalAlign=bottom;endArrow=block;labelBackgroundColor=none;fontFamily=Verdana;fontSize=12;elbow=vertical;edgeStyle=orthogonalEdgeStyle;curved=1;entryX=1;entryY=0.286;entryPerimeter=0;exitX=1.038;exitY=0.345;exitPerimeter=0;" edge="1" parent="1">
          <mxGeometry relative="1" as="geometry">
            <mxPoint x="1431.3333333333335" y="1820" as="sourcePoint" />
            <mxPoint x="1436.3333333333335" y="1858.3333333333335" as="targetPoint" />
            <Array as="points">
              <mxPoint x="1486" y="1820" />
              <mxPoint x="1486" y="1858" />
            </Array>
          </mxGeometry>
        </mxCell>
        <mxCell id="jRzs0VlaQzZq-VrO8uEP-140" value="" style="html=1;points=[];perimeter=orthogonalPerimeter;rounded=0;shadow=0;comic=0;labelBackgroundColor=none;strokeWidth=1;fontFamily=Verdana;fontSize=12;align=center;" vertex="1" parent="1">
          <mxGeometry x="865" y="1880" width="10" height="40" as="geometry" />
        </mxCell>
        <mxCell id="jRzs0VlaQzZq-VrO8uEP-141" value="TSP定时任务捞取代付申请成功" style="html=1;verticalAlign=bottom;endArrow=block;labelBackgroundColor=none;fontFamily=Verdana;fontSize=12;elbow=vertical;edgeStyle=orthogonalEdgeStyle;curved=1;entryX=1;entryY=0.286;entryPerimeter=0;exitX=1.038;exitY=0.345;exitPerimeter=0;" edge="1" parent="1">
          <mxGeometry relative="1" as="geometry">
            <mxPoint x="870.3333333333335" y="1861" as="sourcePoint" />
            <mxPoint x="875.3333333333335" y="1899.3333333333335" as="targetPoint" />
            <Array as="points">
              <mxPoint x="925" y="1861" />
              <mxPoint x="925" y="1899" />
            </Array>
          </mxGeometry>
        </mxCell>
        <mxCell id="jRzs0VlaQzZq-VrO8uEP-142" value="&lt;font style=&quot;font-size: 10px&quot; face=&quot;Verdana&quot;&gt;[prodType =&amp;nbsp;&lt;span style=&quot;font-style: italic ; background-color: rgb(255 , 255 , 255)&quot;&gt;&lt;font&gt;TRANSFER&lt;/font&gt;&lt;/span&gt;&lt;br&gt;&lt;span style=&quot;background-color: rgb(255 , 255 , 255)&quot;&gt;&lt;font&gt;&amp;nbsp; &amp;nbsp; &amp;nbsp; &amp;nbsp; &amp;nbsp; &amp;nbsp; &amp;nbsp; &amp;nbsp;||&amp;nbsp;&lt;/font&gt;&lt;/span&gt;&lt;span style=&quot;font-style: italic ; background-color: rgb(255 , 255 , 255)&quot;&gt;TRANSFER_ENTERPRISE&lt;/span&gt;&lt;span style=&quot;background-color: rgb(255 , 255 , 255)&quot;&gt;]&lt;/span&gt;&lt;/font&gt;" style="text;html=1;align=left;verticalAlign=middle;resizable=0;points=[];autosize=1;strokeColor=none;" vertex="1" parent="1">
          <mxGeometry x="879" y="1950" width="210" height="30" as="geometry" />
        </mxCell>
        <mxCell id="jRzs0VlaQzZq-VrO8uEP-143" value="" style="html=1;points=[];perimeter=orthogonalPerimeter;rounded=0;shadow=0;comic=0;labelBackgroundColor=none;strokeColor=#000000;strokeWidth=1;fillColor=#FFFFFF;fontFamily=Verdana;fontSize=12;fontColor=#000000;align=center;" vertex="1" parent="1">
          <mxGeometry x="1425" y="2000" width="10" height="30" as="geometry" />
        </mxCell>
        <mxCell id="jRzs0VlaQzZq-VrO8uEP-144" value="return" style="html=1;verticalAlign=bottom;endArrow=open;dashed=1;endSize=8;labelBackgroundColor=none;fontFamily=Verdana;fontSize=12;edgeStyle=elbowEdgeStyle;elbow=vertical;entryX=0.9;entryY=0.692;entryDx=0;entryDy=0;entryPerimeter=0;exitX=-0.5;exitY=0.633;exitDx=0;exitDy=0;exitPerimeter=0;" edge="1" parent="1" source="jRzs0VlaQzZq-VrO8uEP-143">
          <mxGeometry relative="1" as="geometry">
            <mxPoint x="873.9999999999995" y="2019.7600000000002" as="targetPoint" />
            <Array as="points">
              <mxPoint x="1221.5" y="2020" />
              <mxPoint x="1251.5" y="2020" />
            </Array>
            <mxPoint x="1419" y="2020" as="sourcePoint" />
          </mxGeometry>
        </mxCell>
        <mxCell id="jRzs0VlaQzZq-VrO8uEP-145" value="&lt;span style=&quot;background-color: rgb(255 , 255 , 255) ; font-family: &amp;#34;menlo&amp;#34; ; font-size: 9.8pt&quot;&gt;支付交易核心转账处理&lt;/span&gt;" style="html=1;verticalAlign=bottom;endArrow=block;labelBackgroundColor=none;fontFamily=Verdana;fontSize=12;edgeStyle=elbowEdgeStyle;elbow=vertical;" edge="1" parent="1">
          <mxGeometry relative="1" as="geometry">
            <mxPoint x="873.9999999999995" y="2000" as="sourcePoint" />
            <mxPoint x="1428.999999999999" y="2000.9999999999995" as="targetPoint" />
          </mxGeometry>
        </mxCell>
        <mxCell id="jRzs0VlaQzZq-VrO8uEP-146" value="" style="endArrow=none;html=1;edgeStyle=orthogonalEdgeStyle;dashed=1;" edge="1" parent="1">
          <mxGeometry relative="1" as="geometry">
            <mxPoint x="790" y="2060" as="sourcePoint" />
            <mxPoint x="1480" y="2060" as="targetPoint" />
          </mxGeometry>
        </mxCell>
        <mxCell id="jRzs0VlaQzZq-VrO8uEP-147" value="&lt;font style=&quot;font-size: 10px&quot; face=&quot;Verdana&quot;&gt;[else&lt;span style=&quot;background-color: rgb(255 , 255 , 255)&quot;&gt;]&lt;/span&gt;&lt;/font&gt;" style="text;html=1;align=left;verticalAlign=middle;resizable=0;points=[];autosize=1;strokeColor=none;" vertex="1" parent="1">
          <mxGeometry x="879" y="2085" width="40" height="20" as="geometry" />
        </mxCell>
        <mxCell id="jRzs0VlaQzZq-VrO8uEP-148" value="" style="html=1;points=[];perimeter=orthogonalPerimeter;rounded=0;shadow=0;comic=0;labelBackgroundColor=none;strokeColor=#000000;strokeWidth=1;fillColor=#FFFFFF;fontFamily=Verdana;fontSize=12;fontColor=#000000;align=center;" vertex="1" parent="1">
          <mxGeometry x="1425" y="2130" width="10" height="30" as="geometry" />
        </mxCell>
        <mxCell id="jRzs0VlaQzZq-VrO8uEP-149" value="return" style="html=1;verticalAlign=bottom;endArrow=open;dashed=1;endSize=8;labelBackgroundColor=none;fontFamily=Verdana;fontSize=12;edgeStyle=elbowEdgeStyle;elbow=vertical;entryX=0.9;entryY=0.692;entryDx=0;entryDy=0;entryPerimeter=0;exitX=-0.5;exitY=0.633;exitDx=0;exitDy=0;exitPerimeter=0;" edge="1" parent="1" source="jRzs0VlaQzZq-VrO8uEP-148">
          <mxGeometry relative="1" as="geometry">
            <mxPoint x="873.9999999999991" y="2149.76" as="targetPoint" />
            <Array as="points">
              <mxPoint x="1221.5" y="2150" />
              <mxPoint x="1251.5" y="2150" />
            </Array>
            <mxPoint x="1419" y="2150" as="sourcePoint" />
          </mxGeometry>
        </mxCell>
        <mxCell id="jRzs0VlaQzZq-VrO8uEP-150" value="&lt;span style=&quot;background-color: rgb(255 , 255 , 255) ; font-family: &amp;#34;menlo&amp;#34; ; font-size: 9.8pt&quot;&gt;新支付交易核心转账处理&lt;/span&gt;" style="html=1;verticalAlign=bottom;endArrow=block;labelBackgroundColor=none;fontFamily=Verdana;fontSize=12;edgeStyle=elbowEdgeStyle;elbow=vertical;" edge="1" parent="1">
          <mxGeometry relative="1" as="geometry">
            <mxPoint x="873.9999999999991" y="2130" as="sourcePoint" />
            <mxPoint x="1428.999999999999" y="2130.9999999999995" as="targetPoint" />
          </mxGeometry>
        </mxCell>
        <mxCell id="jRzs0VlaQzZq-VrO8uEP-151" value="" style="html=1;points=[];perimeter=orthogonalPerimeter;rounded=0;shadow=0;comic=0;labelBackgroundColor=none;strokeWidth=1;fontFamily=Verdana;fontSize=12;align=center;" vertex="1" parent="1">
          <mxGeometry x="1285" y="840" width="10" height="40" as="geometry" />
        </mxCell>
        <mxCell id="jRzs0VlaQzZq-VrO8uEP-152" value="额度准入校验" style="html=1;verticalAlign=bottom;endArrow=block;labelBackgroundColor=none;fontFamily=Verdana;fontSize=12;edgeStyle=elbowEdgeStyle;elbow=vertical;" edge="1" parent="1" source="jRzs0VlaQzZq-VrO8uEP-5">
          <mxGeometry relative="1" as="geometry">
            <mxPoint x="880" y="841" as="sourcePoint" />
            <mxPoint x="1285.9999999999995" y="841" as="targetPoint" />
          </mxGeometry>
        </mxCell>
        <mxCell id="jRzs0VlaQzZq-VrO8uEP-153" value="return" style="html=1;verticalAlign=bottom;endArrow=open;dashed=1;endSize=8;labelBackgroundColor=none;fontFamily=Verdana;fontSize=12;edgeStyle=elbowEdgeStyle;elbow=vertical;" edge="1" parent="1" source="jRzs0VlaQzZq-VrO8uEP-151">
          <mxGeometry relative="1" as="geometry">
            <mxPoint x="875" y="859" as="targetPoint" />
            <Array as="points">
              <mxPoint x="1253" y="859.5" />
            </Array>
            <mxPoint x="1278" y="859.5" as="sourcePoint" />
          </mxGeometry>
        </mxCell>
      </root>
    </mxGraphModel>
  </diagram>
</mxfile>
